<svg aria-hidden="true" style="position: absolute; width: 0; height: 0; overflow: hidden;" version="1.1" xmlns="http://www.w3.org/2000/svg" xmlns:xlink="http://www.w3.org/1999/xlink">
<defs>
<symbol id="bell" viewBox="0 0 24 24">
<path d="M17 8c0 1.894 0.211 3.458 0.533 4.741 0.288 1.148 0.664 2.068 1.052 2.794 0.088 0.165 0.177 0.32 0.266 0.465h-13.702c0.089-0.145 0.177-0.3 0.266-0.465 0.388-0.726 0.764-1.645 1.052-2.794 0.322-1.283 0.533-2.847 0.533-4.741 0-0.679 0.135-1.324 0.378-1.912 0.253-0.611 0.625-1.162 1.086-1.624s1.013-0.833 1.624-1.086c0.588-0.243 1.233-0.378 1.912-0.378s1.324 0.135 1.912 0.378c0.611 0.253 1.162 0.624 1.624 1.086s0.833 1.013 1.086 1.624c0.243 0.588 0.378 1.233 0.378 1.912zM19 8c0-0.946-0.188-1.851-0.53-2.677-0.355-0.857-0.875-1.628-1.52-2.273s-1.415-1.165-2.273-1.52c-0.826-0.342-1.731-0.53-2.677-0.53s-1.851 0.188-2.677 0.53c-0.858 0.356-1.628 0.876-2.273 1.52s-1.164 1.415-1.52 2.273c-0.342 0.826-0.53 1.731-0.53 2.677 0 1.745-0.194 3.145-0.473 4.255-0.249 0.993-0.566 1.758-0.875 2.336-0.314 0.586-0.622 0.984-0.849 1.234-0.21 0.232-0.353 0.339-0.369 0.35-0.45 0.309-0.57 0.923-0.266 1.379 0.192 0.288 0.506 0.444 0.832 0.446h18c0.552 0 1-0.448 1-1 0-0.346-0.175-0.65-0.445-0.832 0.009 0.006-0.137-0.099-0.358-0.343-0.227-0.25-0.535-0.648-0.849-1.234-0.309-0.578-0.626-1.343-0.875-2.336-0.279-1.11-0.473-2.51-0.473-4.255zM12.865 20.498c-0.069 0.119-0.157 0.216-0.257 0.293-0.105 0.080-0.224 0.138-0.351 0.172s-0.26 0.043-0.39 0.025c-0.125-0.017-0.25-0.058-0.368-0.127-0.162-0.094-0.283-0.222-0.359-0.357-0.274-0.48-0.884-0.647-1.364-0.373s-0.647 0.884-0.373 1.364c0.25 0.439 0.623 0.823 1.093 1.096 0.35 0.203 0.726 0.328 1.107 0.379 0.395 0.053 0.792 0.026 1.169-0.075s0.735-0.274 1.052-0.516c0.305-0.233 0.57-0.529 0.773-0.878 0.277-0.478 0.114-1.090-0.363-1.367s-1.090-0.114-1.367 0.363z"></path>
</symbol>
<symbol id="chevron-down" viewBox="0 0 24 24">
<path d="M5.293 9.707l6 6c0.391 0.391 1.024 0.391 1.414 0l6-6c0.391-0.391 0.391-1.024 0-1.414s-1.024-0.391-1.414 0l-5.293 5.293-5.293-5.293c-0.391-0.391-1.024-0.391-1.414 0s-0.391 1.024 0 1.414z"></path>
</symbol>
<symbol id="search" viewBox="0 0 24 24">
<path d="M16.041 15.856c-0.034 0.026-0.067 0.055-0.099 0.087s-0.060 0.064-0.087 0.099c-1.258 1.213-2.969 1.958-4.855 1.958-1.933 0-3.682-0.782-4.95-2.050s-2.050-3.017-2.050-4.95 0.782-3.682 2.050-4.95 3.017-2.050 4.95-2.050 3.682 0.782 4.95 2.050 2.050 3.017 2.050 4.95c0 1.886-0.745 3.597-1.959 4.856zM21.707 20.293l-3.675-3.675c1.231-1.54 1.968-3.493 1.968-5.618 0-2.485-1.008-4.736-2.636-6.364s-3.879-2.636-6.364-2.636-4.736 1.008-6.364 2.636-2.636 3.879-2.636 6.364 1.008 4.736 2.636 6.364 3.879 2.636 6.364 2.636c2.125 0 4.078-0.737 5.618-1.968l3.675 3.675c0.391 0.391 1.024 0.391 1.414 0s0.391-1.024 0-1.414z"></path>
</symbol>
<symbol id="calendar" viewBox="0 0 24 24">
<path d="M7 2v1h-2c-0.405 0-0.793 0.081-1.148 0.228-0.367 0.152-0.697 0.375-0.973 0.651s-0.499 0.606-0.651 0.973c-0.147 0.355-0.228 0.743-0.228 1.148v14c0 0.405 0.081 0.793 0.228 1.148 0.152 0.368 0.375 0.698 0.651 0.974s0.606 0.499 0.974 0.651c0.354 0.146 0.742 0.227 1.147 0.227h14c0.405 0 0.793-0.081 1.148-0.228 0.368-0.152 0.698-0.375 0.974-0.651s0.499-0.606 0.651-0.974c0.146-0.354 0.227-0.742 0.227-1.147v-14c0-0.405-0.081-0.793-0.228-1.148-0.152-0.368-0.375-0.698-0.651-0.974s-0.606-0.499-0.974-0.651c-0.354-0.146-0.742-0.227-1.147-0.227h-2v-1c0-0.552-0.448-1-1-1s-1 0.448-1 1v1h-6v-1c0-0.552-0.448-1-1-1s-1 0.448-1 1zM20 9h-16v-3c0-0.137 0.027-0.266 0.075-0.382 0.050-0.122 0.125-0.232 0.218-0.325s0.203-0.167 0.325-0.218c0.116-0.048 0.245-0.075 0.382-0.075h2v1c0 0.552 0.448 1 1 1s1-0.448 1-1v-1h6v1c0 0.552 0.448 1 1 1s1-0.448 1-1v-1h2c0.137 0 0.266 0.027 0.382 0.075 0.122 0.050 0.232 0.125 0.325 0.218s0.167 0.203 0.218 0.325c0.048 0.116 0.075 0.245 0.075 0.382zM4 11h16v9c0 0.137-0.027 0.266-0.075 0.382-0.050 0.122-0.125 0.232-0.218 0.325s-0.203 0.167-0.325 0.218c-0.116 0.048-0.245 0.075-0.382 0.075h-14c-0.137 0-0.266-0.027-0.382-0.075-0.122-0.050-0.232-0.125-0.325-0.218s-0.167-0.203-0.218-0.325c-0.048-0.116-0.075-0.245-0.075-0.382z"></path>
</symbol>
<symbol id="file-text" viewBox="0 0 24 24">
<path d="M17.586 7h-2.586v-2.586zM20.703 7.289l-5.996-5.996c-0.001-0.001-0.003-0.002-0.004-0.004-0.095-0.094-0.204-0.165-0.32-0.213-0.122-0.051-0.253-0.076-0.383-0.076h-8c-0.405 0-0.793 0.081-1.148 0.228-0.367 0.152-0.697 0.375-0.973 0.651s-0.499 0.606-0.651 0.973c-0.147 0.355-0.228 0.743-0.228 1.148v16c0 0.405 0.081 0.793 0.228 1.148 0.152 0.368 0.375 0.698 0.651 0.974s0.606 0.499 0.974 0.651c0.354 0.146 0.742 0.227 1.147 0.227h12c0.405 0 0.793-0.081 1.148-0.228 0.368-0.152 0.698-0.375 0.974-0.651s0.499-0.606 0.651-0.974c0.146-0.354 0.227-0.742 0.227-1.147v-12c0-0.276-0.112-0.526-0.293-0.707zM13 3v5c0 0.552 0.448 1 1 1h5v11c0 0.137-0.027 0.266-0.075 0.382-0.050 0.122-0.125 0.232-0.218 0.325s-0.203 0.167-0.325 0.218c-0.116 0.048-0.245 0.075-0.382 0.075h-12c-0.137 0-0.266-0.027-0.382-0.075-0.122-0.050-0.232-0.125-0.325-0.218s-0.167-0.203-0.218-0.325c-0.048-0.116-0.075-0.245-0.075-0.382v-16c0-0.137 0.027-0.266 0.075-0.382 0.050-0.122 0.125-0.232 0.218-0.325s0.203-0.167 0.325-0.218c0.116-0.048 0.245-0.075 0.382-0.075zM16 12h-8c-0.552 0-1 0.448-1 1s0.448 1 1 1h8c0.552 0 1-0.448 1-1s-0.448-1-1-1zM16 16h-8c-0.552 0-1 0.448-1 1s0.448 1 1 1h8c0.552 0 1-0.448 1-1s-0.448-1-1-1zM10 8h-2c-0.552 0-1 0.448-1 1s0.448 1 1 1h2c0.552 0 1-0.448 1-1s-0.448-1-1-1z"></path>
</symbol>
<symbol id="home" viewBox="0 0 24 24">
<path d="M2.386 8.211c-0.236 0.184-0.386 0.469-0.386 0.789v11c0 0.405 0.081 0.793 0.228 1.148 0.152 0.368 0.375 0.698 0.651 0.974s0.606 0.499 0.974 0.651c0.354 0.146 0.742 0.227 1.147 0.227h14c0.405 0 0.793-0.081 1.148-0.228 0.368-0.152 0.698-0.375 0.974-0.651s0.499-0.606 0.651-0.974c0.146-0.354 0.227-0.742 0.227-1.147v-11c-0.001-0.3-0.134-0.593-0.386-0.789l-9-7c-0.358-0.275-0.861-0.285-1.228 0zM16 21v-9c0-0.552-0.448-1-1-1h-6c-0.552 0-1 0.448-1 1v9h-3c-0.137 0-0.266-0.027-0.382-0.075-0.122-0.050-0.232-0.125-0.325-0.218s-0.167-0.203-0.218-0.325c-0.048-0.116-0.075-0.245-0.075-0.382v-10.511l8-6.222 8 6.222v10.511c0 0.137-0.027 0.266-0.075 0.382-0.050 0.122-0.125 0.232-0.218 0.325s-0.203 0.167-0.325 0.218c-0.116 0.048-0.245 0.075-0.382 0.075zM10 21v-8h4v8z"></path>
</symbol>
<symbol id="message-square" viewBox="0 0 24 24">
<path d="M22 15v-10c0-0.405-0.081-0.793-0.228-1.148-0.152-0.368-0.375-0.698-0.651-0.974s-0.606-0.499-0.974-0.651c-0.354-0.146-0.742-0.227-1.147-0.227h-14c-0.405 0-0.793 0.081-1.148 0.228-0.367 0.152-0.697 0.375-0.973 0.651s-0.499 0.606-0.651 0.973c-0.147 0.355-0.228 0.743-0.228 1.148v16c0 0.256 0.098 0.512 0.293 0.707 0.391 0.391 1.024 0.391 1.414 0l3.707-3.707h11.586c0.405 0 0.793-0.081 1.148-0.228 0.368-0.152 0.698-0.375 0.974-0.651s0.499-0.606 0.651-0.974c0.146-0.354 0.227-0.742 0.227-1.147zM20 15c0 0.137-0.027 0.266-0.075 0.382-0.050 0.122-0.125 0.232-0.218 0.325s-0.203 0.167-0.325 0.218c-0.116 0.048-0.245 0.075-0.382 0.075h-12c-0.276 0-0.526 0.112-0.707 0.293l-2.293 2.293v-13.586c0-0.137 0.027-0.266 0.075-0.382 0.050-0.122 0.125-0.232 0.218-0.325s0.203-0.167 0.325-0.218c0.116-0.048 0.245-0.075 0.382-0.075h14c0.137 0 0.266 0.027 0.382 0.075 0.122 0.050 0.232 0.125 0.325 0.218s0.167 0.203 0.218 0.325c0.048 0.116 0.075 0.245 0.075 0.382z"></path>
</symbol>
<symbol id="mic" viewBox="0 0 24 24">
<path d="M12 2c0.273 0 0.53 0.054 0.765 0.151 0.244 0.101 0.464 0.25 0.65 0.435s0.334 0.406 0.435 0.65c0.096 0.234 0.15 0.491 0.15 0.764v8c0 0.273-0.054 0.53-0.151 0.765-0.101 0.244-0.25 0.464-0.435 0.65s-0.406 0.334-0.65 0.435c-0.234 0.096-0.491 0.15-0.764 0.15s-0.53-0.054-0.765-0.151c-0.244-0.101-0.464-0.25-0.65-0.435s-0.334-0.406-0.435-0.65c-0.096-0.234-0.15-0.491-0.15-0.764v-8c0-0.273 0.054-0.53 0.151-0.765 0.101-0.244 0.25-0.464 0.435-0.65s0.406-0.334 0.65-0.435c0.234-0.096 0.491-0.15 0.764-0.15zM12 0c-0.54 0-1.057 0.108-1.53 0.303-0.49 0.203-0.93 0.5-1.298 0.868s-0.666 0.809-0.869 1.299c-0.195 0.473-0.303 0.99-0.303 1.53v8c0 0.54 0.108 1.057 0.303 1.53 0.203 0.49 0.5 0.93 0.868 1.298s0.808 0.665 1.298 0.868c0.474 0.196 0.991 0.304 1.531 0.304s1.057-0.108 1.53-0.303c0.49-0.203 0.93-0.5 1.298-0.868s0.665-0.808 0.868-1.298c0.196-0.474 0.304-0.991 0.304-1.531v-8c0-0.54-0.108-1.057-0.303-1.53-0.203-0.49-0.5-0.93-0.868-1.298s-0.809-0.666-1.299-0.869c-0.473-0.195-0.99-0.303-1.53-0.303zM8 24h8c0.552 0 1-0.448 1-1s-0.448-1-1-1h-3v-2.062c0.72-0.090 1.411-0.276 2.060-0.544 0.98-0.406 1.86-1 2.597-1.737s1.331-1.618 1.737-2.597c0.391-0.944 0.606-1.978 0.606-3.060v-2c0-0.552-0.448-1-1-1s-1 0.448-1 1v2c0 0.815-0.162 1.589-0.454 2.294-0.304 0.733-0.749 1.394-1.303 1.948s-1.215 1-1.948 1.303c-0.706 0.293-1.48 0.455-2.295 0.455s-1.589-0.162-2.294-0.454c-0.733-0.304-1.394-0.749-1.948-1.303s-1-1.215-1.303-1.948c-0.293-0.706-0.455-1.48-0.455-2.295v-2c0-0.552-0.448-1-1-1s-1 0.448-1 1v2c0 1.082 0.215 2.116 0.606 3.060 0.406 0.98 1 1.86 1.737 2.597s1.618 1.331 2.597 1.737c0.649 0.269 1.34 0.454 2.060 0.544v2.062h-3c-0.552 0-1 0.448-1 1s0.448 1 1 1z"></path>
</symbol>
<symbol id="navigation" viewBox="0 0 24 24">
<path d="M2.572 10.096c-0.262 0.125-0.467 0.36-0.542 0.661-0.134 0.536 0.192 1.079 0.728 1.213l7.418 1.854 1.854 7.418c0.071 0.281 0.261 0.528 0.542 0.661 0.499 0.236 1.095 0.023 1.332-0.476l9-19c0.124-0.263 0.133-0.575 0-0.856-0.236-0.499-0.833-0.712-1.332-0.476zM5.953 10.708l13.945-6.606-6.606 13.945-1.322-5.29c-0.092-0.369-0.378-0.638-0.728-0.728z"></path>
</symbol>
<symbol id="settings" viewBox="0 0 24 24">
<path d="M16 12c0-0.54-0.108-1.057-0.303-1.53-0.203-0.49-0.5-0.93-0.868-1.298s-0.809-0.666-1.299-0.869c-0.473-0.195-0.99-0.303-1.53-0.303s-1.057 0.108-1.53 0.303c-0.49 0.203-0.93 0.5-1.298 0.868s-0.666 0.809-0.869 1.299c-0.195 0.473-0.303 0.99-0.303 1.53s0.108 1.057 0.303 1.53c0.203 0.49 0.5 0.93 0.868 1.298s0.808 0.665 1.298 0.868c0.474 0.196 0.991 0.304 1.531 0.304s1.057-0.108 1.53-0.303c0.49-0.203 0.93-0.5 1.298-0.868s0.665-0.808 0.868-1.298c0.196-0.474 0.304-0.991 0.304-1.531zM14 12c0 0.273-0.054 0.53-0.151 0.765-0.101 0.244-0.25 0.464-0.435 0.65s-0.406 0.334-0.65 0.435c-0.234 0.096-0.491 0.15-0.764 0.15s-0.53-0.054-0.765-0.151c-0.244-0.101-0.464-0.25-0.65-0.435s-0.334-0.406-0.435-0.65c-0.096-0.234-0.15-0.491-0.15-0.764s0.054-0.53 0.151-0.765c0.101-0.244 0.25-0.464 0.435-0.65s0.406-0.334 0.65-0.435c0.234-0.096 0.491-0.15 0.764-0.15s0.53 0.054 0.765 0.151c0.244 0.101 0.464 0.25 0.65 0.435s0.334 0.406 0.435 0.65c0.096 0.234 0.15 0.491 0.15 0.764zM20.315 15.404c0.046-0.105 0.112-0.191 0.192-0.257 0.057-0.047 0.122-0.084 0.19-0.109 0.066-0.024 0.139-0.038 0.213-0.038h0.090c0.405 0 0.793-0.081 1.148-0.228 0.368-0.152 0.698-0.375 0.974-0.651s0.499-0.606 0.651-0.974c0.146-0.354 0.227-0.742 0.227-1.147s-0.081-0.793-0.228-1.148c-0.152-0.368-0.375-0.698-0.651-0.974s-0.606-0.499-0.974-0.651c-0.354-0.146-0.742-0.227-1.147-0.227h-0.159c-0.11-0.001-0.215-0.028-0.308-0.076-0.066-0.034-0.125-0.079-0.174-0.133-0.047-0.050-0.087-0.11-0.117-0.179-0.003-0.029-0.004-0.059-0.004-0.089-0.046-0.106-0.064-0.219-0.054-0.328 0.006-0.074 0.025-0.146 0.056-0.213 0.029-0.064 0.071-0.126 0.118-0.174l0.062-0.062c0.286-0.286 0.503-0.618 0.65-0.973 0.152-0.368 0.228-0.759 0.228-1.149s-0.076-0.781-0.229-1.149c-0.147-0.355-0.365-0.686-0.653-0.974-0.286-0.286-0.618-0.503-0.973-0.65-0.368-0.152-0.759-0.228-1.149-0.228s-0.782 0.077-1.15 0.229c-0.355 0.147-0.686 0.365-0.972 0.651l-0.046 0.047c-0.083 0.080-0.183 0.136-0.288 0.166-0.072 0.020-0.146 0.028-0.219 0.023-0.071-0.005-0.143-0.022-0.218-0.055-0.101-0.044-0.187-0.11-0.253-0.19-0.047-0.057-0.084-0.122-0.109-0.19-0.025-0.067-0.039-0.14-0.039-0.214v-0.090c0-0.405-0.081-0.793-0.228-1.148-0.152-0.368-0.375-0.698-0.651-0.974s-0.606-0.499-0.974-0.651c-0.354-0.146-0.742-0.227-1.147-0.227s-0.793 0.081-1.148 0.228c-0.368 0.152-0.698 0.375-0.974 0.651s-0.498 0.606-0.65 0.973c-0.147 0.355-0.228 0.743-0.228 1.148v0.159c-0.001 0.11-0.028 0.215-0.076 0.308-0.034 0.066-0.079 0.125-0.133 0.174-0.050 0.047-0.11 0.087-0.179 0.117-0.029 0.003-0.059 0.004-0.089 0.004-0.106 0.046-0.219 0.064-0.328 0.054-0.075-0.006-0.147-0.025-0.214-0.055-0.064-0.030-0.126-0.071-0.174-0.118l-0.062-0.062c-0.286-0.286-0.618-0.503-0.973-0.65-0.368-0.152-0.759-0.228-1.149-0.228s-0.781 0.077-1.149 0.229c-0.354 0.147-0.686 0.365-0.973 0.653-0.286 0.286-0.503 0.618-0.65 0.973-0.152 0.368-0.228 0.759-0.228 1.149s0.077 0.781 0.229 1.149c0.147 0.354 0.365 0.686 0.651 0.971l0.047 0.047c0.080 0.083 0.136 0.183 0.166 0.288 0.020 0.072 0.028 0.146 0.023 0.219-0.005 0.071-0.022 0.143-0.054 0.215-0.006 0.016-0.013 0.034-0.021 0.052-0.041 0.109-0.108 0.203-0.191 0.275-0.057 0.049-0.12 0.087-0.189 0.114-0.066 0.026-0.139 0.041-0.194 0.043h-0.090c-0.405 0-0.793 0.081-1.148 0.228-0.367 0.152-0.697 0.375-0.973 0.651s-0.499 0.606-0.651 0.974c-0.147 0.354-0.228 0.742-0.228 1.147s0.081 0.793 0.228 1.148c0.152 0.368 0.375 0.698 0.651 0.974s0.606 0.499 0.974 0.651c0.354 0.146 0.742 0.227 1.147 0.227h0.159c0.11 0.001 0.215 0.028 0.308 0.076 0.066 0.034 0.125 0.079 0.174 0.133 0.048 0.052 0.089 0.113 0.121 0.188 0.046 0.106 0.064 0.219 0.054 0.328-0.006 0.074-0.025 0.146-0.056 0.213-0.029 0.064-0.071 0.126-0.118 0.174l-0.062 0.062c-0.286 0.286-0.503 0.618-0.65 0.973-0.152 0.368-0.228 0.759-0.228 1.149s0.076 0.781 0.229 1.149c0.147 0.355 0.365 0.686 0.653 0.974 0.286 0.286 0.618 0.503 0.973 0.65 0.368 0.152 0.759 0.228 1.149 0.228s0.781-0.076 1.149-0.229c0.355-0.147 0.686-0.365 0.972-0.651l0.047-0.048c0.083-0.080 0.183-0.136 0.288-0.166 0.072-0.020 0.146-0.028 0.219-0.023 0.071 0.005 0.143 0.022 0.215 0.054 0.016 0.006 0.034 0.013 0.052 0.021 0.109 0.041 0.203 0.108 0.275 0.191 0.049 0.056 0.087 0.12 0.114 0.189 0.025 0.066 0.041 0.139 0.042 0.194v0.091c0 0.405 0.081 0.793 0.228 1.148 0.152 0.368 0.375 0.698 0.651 0.974s0.606 0.499 0.974 0.651c0.355 0.146 0.743 0.227 1.148 0.227s0.793-0.081 1.148-0.228c0.368-0.152 0.698-0.375 0.974-0.651s0.499-0.606 0.651-0.974c0.147-0.355 0.228-0.743 0.228-1.148v-0.159c0.001-0.11 0.028-0.215 0.076-0.308 0.034-0.066 0.079-0.125 0.133-0.174 0.052-0.048 0.113-0.089 0.188-0.121 0.106-0.046 0.219-0.064 0.328-0.054 0.074 0.006 0.146 0.025 0.213 0.056 0.064 0.029 0.126 0.071 0.174 0.118l0.062 0.062c0.286 0.286 0.618 0.503 0.973 0.65 0.368 0.152 0.759 0.228 1.149 0.228s0.781-0.076 1.149-0.229c0.355-0.147 0.686-0.365 0.974-0.653 0.286-0.286 0.503-0.618 0.65-0.973 0.152-0.368 0.228-0.759 0.228-1.149s-0.076-0.781-0.229-1.149c-0.147-0.355-0.365-0.686-0.651-0.972l-0.048-0.047c-0.080-0.083-0.136-0.183-0.166-0.288-0.020-0.072-0.028-0.146-0.023-0.219 0.005-0.071 0.022-0.143 0.054-0.215zM18.485 14.596c-0.126 0.285-0.198 0.582-0.219 0.88-0.022 0.307 0.011 0.612 0.092 0.901 0.119 0.423 0.341 0.814 0.652 1.137l0.072 0.073c0.098 0.097 0.169 0.207 0.218 0.324 0.050 0.122 0.076 0.252 0.076 0.384s-0.025 0.262-0.076 0.384c-0.048 0.116-0.12 0.226-0.217 0.324-0.099 0.099-0.209 0.17-0.325 0.219-0.122 0.050-0.252 0.076-0.384 0.076s-0.262-0.025-0.384-0.076c-0.116-0.048-0.226-0.12-0.324-0.217l-0.061-0.061c-0.23-0.226-0.484-0.398-0.755-0.522-0.28-0.128-0.577-0.205-0.876-0.23-0.437-0.037-0.882 0.034-1.293 0.212-0.281 0.12-0.535 0.288-0.753 0.49-0.224 0.208-0.408 0.451-0.547 0.717-0.193 0.371-0.298 0.785-0.303 1.211v0.181c0 0.137-0.027 0.266-0.075 0.382-0.050 0.122-0.125 0.232-0.218 0.325s-0.203 0.167-0.325 0.218c-0.114 0.045-0.243 0.072-0.38 0.072s-0.266-0.027-0.382-0.075c-0.122-0.050-0.232-0.125-0.325-0.218s-0.167-0.203-0.218-0.325c-0.048-0.116-0.075-0.245-0.075-0.382v-0.090c-0.008-0.335-0.069-0.635-0.176-0.914-0.111-0.287-0.27-0.55-0.467-0.777-0.284-0.328-0.646-0.585-1.058-0.745-0.277-0.119-0.566-0.187-0.854-0.208-0.307-0.022-0.612 0.011-0.901 0.092-0.423 0.119-0.814 0.341-1.137 0.652l-0.073 0.072c-0.099 0.098-0.208 0.17-0.325 0.218-0.122 0.050-0.252 0.076-0.384 0.076s-0.262-0.025-0.384-0.076c-0.116-0.048-0.226-0.12-0.324-0.217-0.099-0.099-0.17-0.209-0.219-0.325-0.050-0.122-0.076-0.252-0.076-0.384s0.025-0.262 0.076-0.384c0.048-0.116 0.12-0.226 0.217-0.324l0.061-0.061c0.226-0.23 0.398-0.484 0.522-0.755 0.128-0.28 0.205-0.577 0.23-0.876 0.037-0.437-0.034-0.882-0.212-1.293-0.12-0.281-0.288-0.535-0.49-0.753-0.208-0.225-0.451-0.408-0.717-0.547-0.371-0.193-0.785-0.298-1.211-0.303l-0.178 0.002c-0.137 0-0.266-0.027-0.382-0.075-0.122-0.050-0.232-0.125-0.325-0.218s-0.167-0.203-0.218-0.325c-0.048-0.116-0.075-0.245-0.075-0.382s0.027-0.266 0.075-0.382c0.050-0.122 0.125-0.232 0.218-0.325s0.203-0.167 0.325-0.218c0.116-0.048 0.245-0.075 0.382-0.075h0.090c0.335-0.008 0.635-0.069 0.914-0.176 0.287-0.111 0.55-0.27 0.777-0.467 0.328-0.284 0.585-0.646 0.745-1.058 0.119-0.277 0.187-0.566 0.208-0.854 0.022-0.307-0.011-0.612-0.092-0.901-0.119-0.425-0.341-0.816-0.652-1.138l-0.073-0.073c-0.097-0.098-0.169-0.207-0.217-0.324-0.051-0.121-0.076-0.252-0.077-0.383s0.025-0.262 0.076-0.384c0.048-0.116 0.12-0.226 0.217-0.324 0.099-0.098 0.208-0.17 0.325-0.218 0.121-0.051 0.252-0.076 0.383-0.077s0.262 0.025 0.384 0.076c0.116 0.048 0.226 0.12 0.324 0.217l0.061 0.061c0.23 0.226 0.484 0.398 0.755 0.522 0.28 0.128 0.577 0.205 0.876 0.23 0.37 0.032 0.745-0.014 1.101-0.137 0.096-0.012 0.187-0.037 0.269-0.073 0.285-0.122 0.539-0.289 0.757-0.491 0.225-0.208 0.408-0.451 0.547-0.717 0.192-0.37 0.297-0.785 0.302-1.21v-0.181c0-0.137 0.027-0.266 0.075-0.382 0.050-0.122 0.125-0.232 0.218-0.325s0.203-0.167 0.325-0.218c0.116-0.048 0.245-0.075 0.382-0.075s0.266 0.027 0.382 0.075c0.122 0.050 0.232 0.125 0.325 0.218s0.167 0.203 0.218 0.325c0.048 0.116 0.075 0.245 0.075 0.382v0.090c0.001 0.314 0.056 0.613 0.157 0.892 0.104 0.288 0.256 0.552 0.447 0.783 0.266 0.323 0.607 0.581 0.996 0.751 0.281 0.124 0.579 0.196 0.876 0.217 0.307 0.022 0.612-0.011 0.901-0.092 0.423-0.119 0.814-0.341 1.137-0.652l0.073-0.072c0.097-0.098 0.207-0.169 0.324-0.218 0.122-0.050 0.252-0.076 0.384-0.076s0.262 0.025 0.384 0.076c0.116 0.048 0.226 0.12 0.324 0.217 0.099 0.099 0.17 0.209 0.219 0.325 0.050 0.122 0.076 0.252 0.076 0.384s-0.025 0.262-0.076 0.384c-0.048 0.116-0.12 0.226-0.217 0.324l-0.061 0.061c-0.226 0.23-0.398 0.484-0.522 0.755-0.128 0.28-0.205 0.577-0.23 0.876-0.032 0.37 0.014 0.745 0.137 1.101 0.012 0.096 0.037 0.187 0.073 0.269 0.122 0.285 0.289 0.539 0.491 0.757 0.208 0.224 0.451 0.408 0.717 0.547 0.371 0.193 0.785 0.298 1.211 0.303l0.179-0.002c0.137 0 0.266 0.027 0.382 0.075 0.122 0.050 0.232 0.125 0.325 0.218s0.167 0.203 0.218 0.325c0.048 0.116 0.075 0.245 0.075 0.382s-0.027 0.266-0.075 0.382c-0.050 0.122-0.125 0.232-0.218 0.325s-0.203 0.167-0.325 0.218c-0.116 0.048-0.245 0.075-0.382 0.075h-0.090c-0.314 0.001-0.613 0.056-0.892 0.157-0.288 0.104-0.552 0.256-0.783 0.447-0.323 0.266-0.581 0.607-0.75 0.993z"></path>
</symbol>
<symbol id="smile" viewBox="0 0 24 24">
<path d="M23 12c0-1.488-0.296-2.91-0.833-4.207-0.558-1.347-1.375-2.558-2.388-3.571s-2.224-1.831-3.571-2.388c-1.298-0.538-2.72-0.834-4.208-0.834s-2.91 0.296-4.207 0.833c-1.347 0.558-2.558 1.375-3.571 2.389s-1.831 2.224-2.389 3.571c-0.537 1.297-0.833 2.719-0.833 4.207s0.296 2.91 0.833 4.207c0.558 1.347 1.375 2.558 2.388 3.571s2.224 1.831 3.571 2.388c1.298 0.538 2.72 0.834 4.208 0.834s2.91-0.296 4.207-0.833c1.347-0.558 2.558-1.375 3.571-2.388s1.831-2.224 2.388-3.571c0.538-1.298 0.834-2.72 0.834-4.208zM21 12c0 1.221-0.243 2.383-0.681 3.442-0.456 1.101-1.124 2.092-1.955 2.922s-1.822 1.499-2.922 1.955c-1.059 0.438-2.221 0.681-3.442 0.681s-2.383-0.243-3.442-0.681c-1.101-0.456-2.092-1.124-2.922-1.955-0.831-0.831-1.499-1.822-1.955-2.922-0.438-1.059-0.681-2.221-0.681-3.442s0.243-2.383 0.681-3.442c0.456-1.101 1.124-2.092 1.955-2.922s1.822-1.499 2.922-1.955c1.059-0.438 2.221-0.681 3.442-0.681s2.383 0.243 3.442 0.681c1.101 0.456 2.092 1.124 2.922 1.955 0.831 0.831 1.499 1.822 1.955 2.922 0.438 1.059 0.681 2.221 0.681 3.442zM7.2 14.6c0.030 0.041 0.344 0.452 0.908 0.923 0.337 0.281 0.772 0.59 1.297 0.853 0.383 0.191 0.816 0.359 1.296 0.473 0.403 0.095 0.837 0.151 1.299 0.151s0.896-0.056 1.299-0.151c0.48-0.113 0.914-0.281 1.296-0.473 0.525-0.263 0.96-0.572 1.297-0.853 0.564-0.47 0.877-0.882 0.908-0.923 0.331-0.442 0.242-1.069-0.2-1.4s-1.065-0.242-1.397 0.196c-0.005 0.006-0.068 0.087-0.184 0.21-0.1 0.105-0.237 0.239-0.408 0.382-0.243 0.203-0.549 0.419-0.91 0.6-0.262 0.131-0.55 0.241-0.862 0.315-0.261 0.061-0.541 0.097-0.839 0.097s-0.578-0.036-0.839-0.098c-0.312-0.074-0.6-0.184-0.862-0.315-0.357-0.178-0.661-0.392-0.903-0.594-0.57-0.56-0.598-0.596-0.599-0.597-0.332-0.438-0.956-0.526-1.397-0.196-0.442 0.331-0.531 0.958-0.2 1.4zM9.396 13.993c-0.25-0.208-0.422-0.391-0.516-0.498z"></path>
</symbol>
<symbol id="tag" viewBox="0 0 24 24">
<path d="M21.297 14.117c0.286-0.288 0.502-0.618 0.647-0.971 0.151-0.366 0.227-0.755 0.227-1.143s-0.075-0.779-0.226-1.146c-0.146-0.354-0.362-0.685-0.648-0.973l-8.59-8.59c-0.181-0.182-0.431-0.294-0.707-0.294h-10c-0.552 0-1 0.448-1 1v10c0 0.256 0.098 0.512 0.293 0.708l8.592 8.582c0.286 0.286 0.618 0.503 0.973 0.65 0.368 0.152 0.759 0.228 1.149 0.228s0.781-0.076 1.149-0.229c0.355-0.147 0.686-0.365 0.972-0.651zM19.883 12.703l-7.17 7.17c-0.097 0.098-0.207 0.169-0.324 0.218-0.122 0.050-0.252 0.076-0.384 0.076s-0.262-0.025-0.384-0.076c-0.116-0.048-0.226-0.12-0.324-0.217l-8.297-8.289v-8.585h8.586l8.297 8.297c0.094 0.095 0.166 0.205 0.213 0.321 0.050 0.121 0.075 0.252 0.075 0.383s-0.026 0.261-0.076 0.382c-0.048 0.116-0.119 0.226-0.213 0.32zM8 7c0-0.552-0.448-1-1-1s-1 0.448-1 1 0.448 1 1 1 1-0.448 1-1z"></path>
</symbol>
</defs>
</svg>
